<?xml version="1.0" standalone="no"?>
<!DOCTYPE svg PUBLIC "-//W3C//DTD SVG 20010904//EN"
 "http://www.w3.org/TR/2001/REC-SVG-20010904/DTD/svg10.dtd">
<svg version="1.0" xmlns="http://www.w3.org/2000/svg"
 width="700.000000pt" height="700.000000pt" viewBox="0 0 700.000000 700.000000"
 preserveAspectRatio="xMidYMid meet">
<metadata>
Created by potrace 1.11, written by Peter Selinger 2001-2013
</metadata>
<g transform="translate(0.000000,700.000000) scale(0.100000,-0.100000)"
fill="#000000" stroke="none">
<path d="M3245 6549 c-916 -88 -1819 -671 -2342 -1510 -607 -976 -607 -2102 0
-3078 486 -781 1297 -1338 2157 -1485 725 -123 1503 68 2150 530 637 455 1096
1115 1275 1835 111 452 111 866 0 1318 -313 1262 -1461 2267 -2730 2391 -116
11 -393 11 -510 -1z m-501 -1754 c148 -39 276 -164 320 -314 23 -77 23 -582 1
-658 -63 -213 -283 -351 -502 -315 -163 27 -288 133 -345 291 -18 48 -21 88
-25 291 -7 339 12 444 101 553 112 137 284 195 450 152z m1746 1 c160 -42 292
-192 320 -362 6 -33 10 -160 10 -284 0 -124 -4 -251 -10 -284 -47 -287 -361
-447 -625 -317 -102 51 -176 136 -217 250 -18 48 -21 88 -25 291 -7 339 12
444 101 553 111 136 284 195 446 153z m-2864 -1341 c46 -147 171 -398 256
-517 211 -290 455 -497 787 -663 368 -184 766 -274 1216 -275 345 -1 614 39
916 136 75 24 140 44 144 44 9 0 -3 -111 -20 -182 -63 -255 -275 -368 -789
-419 -153 -15 -572 -6 -716 15 -830 124 -1481 513 -1872 1121 -213 330 -221
583 -26 840 49 65 52 68 59 44 4 -13 24 -78 45 -144z"/>
</g>
</svg>
